<?xml version="1.0" encoding="UTF-8"?>
<svg version="1.1" xmlns="http://www.w3.org/2000/svg" width="1990" height="2262">
<path d="M0 0 C656.7 0 1313.4 0 1990 0 C1990 746.46 1990 1492.92 1990 2262 C1333.3 2262 676.6 2262 0 2262 C0 1515.54 0 769.08 0 0 Z " fill="#FEFEFE" transform="translate(0,0)"/>
<path d="M0 0 C1.91758522 -0.0034435 3.83516844 -0.00819695 5.7527476 -0.01412097 C10.97921308 -0.02652513 16.20551343 -0.02052869 21.43197933 -0.01128729 C27.13417666 -0.00453835 32.8363469 -0.01526307 38.53853834 -0.02368313 C48.51801897 -0.03602334 58.49745257 -0.03727392 68.47693825 -0.0311327 C79.17552088 -0.02456658 89.87406491 -0.02440233 100.57264519 -0.03217983 C101.25039665 -0.03266783 101.92814812 -0.03315583 102.62643751 -0.03365862 C105.38715658 -0.03566697 108.14787561 -0.03772009 110.9085946 -0.03983036 C138.87733072 -0.06118676 166.84604501 -0.06329305 194.81478724 -0.05777332 C198.67398553 -0.05701756 202.53318384 -0.05628994 206.39238214 -0.05559134 C207.54225255 -0.05538271 207.54225255 -0.05538271 208.71535266 -0.05516986 C225.72481087 -0.05221407 242.73426647 -0.05523372 259.7437242 -0.05948763 C262.07350033 -0.06006978 264.40327646 -0.06063863 266.73305259 -0.06120327 C272.97865672 -0.06271827 279.22426085 -0.06424519 285.46986498 -0.06579627 C329.0450503 -0.0765466 372.6202332 -0.08126107 416.19541931 -0.07332611 C417.01615568 -0.0731778 417.83689205 -0.0730295 418.68249921 -0.0728767 C427.83410294 -0.07121778 436.98570664 -0.06946819 446.13731034 -0.06768369 C446.96353127 -0.06752266 447.7897522 -0.06736164 448.64101013 -0.06719574 C455.34536832 -0.06588817 455.34536832 -0.06588817 458.66488267 -0.06523455 C511.54536106 -0.05483683 564.42580619 -0.06262415 617.30628014 -0.086236 C630.63899607 -0.09217945 643.97171201 -0.09807102 657.3044281 -0.10364532 C658.53586715 -0.10416098 658.53586715 -0.10416098 659.79218376 -0.10468705 C685.09068755 -0.11521306 710.38918856 -0.12080836 735.68769455 -0.12120247 C736.87887429 -0.12122164 736.87887429 -0.12122164 738.09411827 -0.1212412 C755.52564964 -0.12146948 772.95718077 -0.12046352 790.38871201 -0.11833215 C796.62550818 -0.11757739 802.86230436 -0.11689919 809.09910054 -0.116252 C810.65061533 -0.11608931 812.20213011 -0.11592164 813.7536449 -0.11574898 C838.47579206 -0.11302774 863.19791904 -0.12158194 887.92006186 -0.13560309 C913.50081307 -0.15000493 939.08152585 -0.14956777 964.66227575 -0.13222837 C967.40877622 -0.13042418 970.15527672 -0.12868399 972.90177727 -0.12699413 C973.91282906 -0.12636338 973.91282906 -0.12636338 974.94430614 -0.12571989 C986.26743271 -0.11903835 997.59049367 -0.12816849 1008.91361603 -0.14146306 C1018.75917281 -0.15191849 1028.60465421 -0.14790031 1038.45020352 -0.13198302 C1044.06419678 -0.1233155 1049.67799637 -0.12101366 1055.29197998 -0.13625234 C1060.39868775 -0.1499837 1065.50503517 -0.1453213 1070.6117217 -0.12596715 C1072.44790298 -0.1222304 1074.28411324 -0.12519547 1076.12026838 -0.13568023 C1089.60036104 -0.20735188 1100.17860619 1.01876132 1110.84973717 10.09516048 C1114.41091664 13.74365434 1116.87184131 17.806913 1119.08020592 22.38031673 C1119.42883546 23.04217416 1119.77746499 23.70403159 1120.13665906 24.38594531 C1121.53149609 28.81249829 1121.35454199 33.07002791 1121.33320558 37.68479079 C1121.33625868 38.73991302 1121.33931177 39.79503526 1121.34245739 40.88213089 C1121.35030487 44.44850502 1121.34380621 48.01471195 1121.33747482 51.58108711 C1121.34016591 54.16249649 1121.34373243 56.74390508 1121.34809929 59.32531217 C1121.35621715 64.97143252 1121.35685396 70.61751605 1121.3526874 76.26364013 C1121.34648402 84.71617747 1121.35175473 93.1686809 1121.35928482 101.62121577 C1121.37177226 116.02527449 1121.3746941 130.42932119 1121.37244987 144.83338451 C1121.37020331 159.43622822 1121.37226097 174.03906173 1121.3795948 188.64190388 C1121.38005411 189.56327308 1121.38051342 190.48464229 1121.38098664 191.43393178 C1121.38286986 195.18636147 1121.38478122 198.93879115 1121.38672902 202.69122081 C1121.40703445 241.86688204 1121.41314161 281.04253756 1121.41431324 320.21820345 C1121.41444273 324.43705513 1121.41457861 328.6559068 1121.41472006 332.87475848 C1121.41475407 333.92163541 1121.41478808 334.96851234 1121.41482312 336.04711281 C1121.41563951 359.23041484 1121.42001767 382.41371577 1121.42503175 405.59701722 C1121.42708842 415.13863949 1121.42906846 424.68026178 1121.43106425 434.22188407 C1121.43128543 435.27610565 1121.43150661 436.33032722 1121.43173449 437.4164949 C1121.44438561 497.84226685 1121.4526324 558.26803808 1121.45171738 618.69381142 C1121.45168582 620.9559351 1121.45165435 623.21805879 1121.45162296 625.48018247 C1121.45147619 635.69383245 1121.45129985 645.90748242 1121.45111519 656.12113239 C1121.45103294 660.67580061 1121.45095265 665.23046883 1121.45087256 669.78513704 C1121.45083177 672.06483268 1121.45078973 674.34452832 1121.45074645 676.62422396 C1121.44938582 748.71765324 1121.46402166 820.81106288 1121.49182701 892.90448666 C1121.49882883 911.06869247 1121.50576766 929.2328983 1121.5123558 947.39710426 C1121.51276155 948.51548899 1121.5131673 949.63387371 1121.51358534 950.78614888 C1121.52601183 985.24593517 1121.53354579 1019.70571984 1121.53607178 1054.16550827 C1121.53619163 1055.78793937 1121.53619163 1055.78793937 1121.5363139 1057.44314686 C1121.53802031 1081.18533972 1121.53854289 1104.92753248 1121.53797315 1128.6697254 C1121.53778018 1137.16477437 1121.53767609 1145.65982335 1121.53761569 1154.15487233 C1121.53759986 1156.26829409 1121.53757945 1158.38171586 1121.53755445 1160.49513762 C1121.53720154 1194.1951877 1121.54860818 1227.89522099 1121.56586208 1261.59526626 C1121.5831483 1295.53091735 1121.58755622 1329.46654517 1121.57433943 1363.40219881 C1121.57251476 1368.08870726 1121.57082823 1372.77521575 1121.5692234 1377.46172428 C1121.56874314 1378.83978622 1121.56874314 1378.83978622 1121.56825318 1380.24568779 C1121.56354206 1394.80886823 1121.57227407 1409.37200848 1121.58656578 1423.93518136 C1121.60032951 1438.2457344 1121.59988012 1452.55622794 1121.5841815 1466.86677965 C1121.57539931 1475.26263485 1121.57760786 1483.65831509 1121.59591507 1492.0541559 C1121.60827177 1498.27895662 1121.59987803 1504.50356429 1121.58324847 1510.72835143 C1121.57979275 1513.23712764 1121.58310498 1515.74592415 1121.59385089 1518.25467973 C1121.60743803 1521.65314026 1121.59645378 1525.05067248 1121.57930124 1528.44909686 C1121.58910048 1529.42020837 1121.59889972 1530.39131988 1121.6089959 1531.39185902 C1121.51536583 1540.27490359 1118.99820284 1548.22471224 1112.83411217 1554.79047298 C1109.52579456 1557.78932659 1106.01959219 1560.28118662 1102.08020592 1562.38031673 C1101.48784082 1562.71044128 1100.89547571 1563.04056583 1100.28516015 1563.38069415 C1091.66530329 1567.52985579 1082.64969593 1566.92435337 1073.32157707 1566.8613348 C1071.39577065 1566.86308096 1069.46996517 1566.8665872 1067.54416472 1566.87168932 C1062.24341931 1566.88063596 1056.94299722 1566.86460461 1051.64229294 1566.84457606 C1045.87855858 1566.82722866 1040.11484118 1566.83318205 1034.35108805 1566.83622265 C1024.24600797 1566.83835564 1014.14103075 1566.82565697 1004.03597641 1566.80330563 C993.19408858 1566.77939208 982.352244 1566.76404945 971.5103302 1566.75957394 C970.82525244 1566.75928678 970.14017469 1566.75899963 969.434337 1566.75870378 C965.94097057 1566.75728421 962.44760411 1566.75601613 958.95423761 1566.75480831 C934.44643509 1566.74609035 909.9386775 1566.72032802 885.43090101 1566.68439092 C859.5988401 1566.64651516 833.7667987 1566.61821998 807.93471336 1566.60407162 C807.15615545 1566.60364299 806.37759754 1566.60321437 805.57544697 1566.60277276 C796.8756194 1566.5980083 788.17579169 1566.59356053 779.47596389 1566.58924246 C763.3840551 1566.58124411 747.29214706 1566.57191511 731.20023918 1566.56226254 C730.39506874 1566.56178141 729.58989829 1566.56130029 728.76032874 1566.56080459 C690.43682304 1566.53783877 652.11333069 1566.5027506 613.78983719 1566.46486073 C611.24704034 1566.46234735 608.70424349 1566.45984004 606.16144664 1566.4573341 C579.78230841 1566.43132366 553.40317092 1566.40458663 527.02403356 1566.37771261 C501.52859818 1566.3517389 476.03316262 1566.32595512 450.53772642 1566.30079275 C447.99932536 1566.29828614 445.4609243 1566.29577347 442.92252324 1566.29326016 C404.66464007 1566.25542276 366.40675817 1566.22122542 328.14886284 1566.19837093 C326.94167166 1566.19764701 326.94167166 1566.19764701 325.71009278 1566.19690846 C309.62764902 1566.1872811 293.54520503 1566.17818367 277.46276036 1566.17020785 C268.76409035 1566.1658899 260.06542048 1566.16134699 251.36675072 1566.15656185 C250.19947286 1566.15592305 250.19947286 1566.15592305 249.00861364 1566.15527134 C223.20348597 1566.14100381 197.39840323 1566.11073739 171.5933004 1566.07283342 C147.13955598 1566.03699263 122.68582876 1566.01352331 98.23205884 1566.00509591 C94.73887205 1566.00388383 91.24568533 1566.00251931 87.75249863 1566.00105953 C87.06779612 1566.00077775 86.38309362 1566.00049597 85.67764256 1566.00020564 C74.22100009 1565.99508589 62.76443932 1565.97402286 51.3078254 1565.94857939 C41.31752367 1565.92748637 31.3272805 1565.92105249 21.33695809 1565.92628615 C15.65238244 1565.92883945 9.96800776 1565.92519675 4.28346854 1565.90349913 C-54.4267111 1565.66893888 -54.4267111 1565.66893888 -105.91979408 1591.38031673 C-106.70741127 1592.04418392 -107.49502846 1592.70805111 -108.30651283 1593.39203548 C-118.35122787 1602.61816593 -123.63298299 1614.3444897 -126.91979408 1627.38031673 C-127.10541908 1628.01711361 -127.29104408 1628.65391048 -127.48229408 1629.31000423 C-132.6421026 1653.72695524 -127.60903153 1681.16458302 -120.16979408 1704.56781673 C-119.96644447 1705.23111996 -119.76309486 1705.89442318 -119.55358315 1706.5778265 C-116.91199134 1714.46754492 -112.96760306 1720.7906749 -108.91979408 1728.38031673 C293.68020592 1728.71031673 696.28020592 1729.04031673 1111.08020592 1729.38031673 C1111.08020592 1736.64031673 1111.08020592 1743.90031673 1111.08020592 1751.38031673 C1113.28708092 1751.29781673 1115.49395592 1751.21531673 1117.76770592 1751.13031673 C1124.31972102 1750.88538159 1124.31972102 1750.88538159 1127.95520592 1753.25141048 C1131.30476729 1756.60712914 1131.95506743 1759.21235748 1132.45520592 1763.88031673 C1132.00868255 1768.04786817 1131.10092205 1769.52288256 1128.08020592 1772.38031673 C1123.74921543 1774.66295013 1119.57955416 1774.66135818 1114.79601306 1774.6333164 C1113.95968639 1774.63636949 1113.12335972 1774.63942259 1112.26168981 1774.6425682 C1109.4410728 1774.65040199 1106.62066803 1774.64392255 1103.80004978 1774.63758564 C1101.75596025 1774.64027732 1099.71187172 1774.64384417 1097.66778508 1774.64821011 C1092.01547863 1774.65770835 1086.36323628 1774.65465448 1080.71092658 1774.64965457 C1074.57481736 1774.64639967 1068.43872218 1774.65466068 1062.30261737 1774.66147292 C1051.53632708 1774.67180211 1040.77006049 1774.67468105 1030.00376701 1774.67256069 C1018.44865049 1774.67031363 1006.89354686 1774.67237352 995.33843231 1774.67970562 C994.60918741 1774.68016493 993.87994251 1774.68062423 993.12859928 1774.68109746 C990.15858239 1774.68298069 987.18856551 1774.68489206 984.21854866 1774.68683984 C953.21422041 1774.7071431 922.20989938 1774.71325238 891.20556524 1774.71442406 C887.86673969 1774.71455355 884.52791413 1774.71468943 881.18908858 1774.71483088 C880.36056609 1774.71486488 879.5320436 1774.71489889 878.67841436 1774.71493393 C860.32647354 1774.7157505 841.97453411 1774.72012927 823.62259403 1774.72514256 C816.06806554 1774.72719927 808.51353702 1774.72917932 800.95900851 1774.73117507 C799.70696436 1774.73150683 799.70696436 1774.73150683 798.42962637 1774.7318453 C750.58612878 1774.74449649 702.74263208 1774.75274324 654.89913273 1774.75182819 C653.10808928 1774.75179664 651.31704583 1774.75176516 649.52600238 1774.75173378 C641.4394387 1774.75158701 633.35287503 1774.75141067 625.26631135 1774.75122601 C621.6602516 1774.75114376 618.05419185 1774.75106347 614.44813211 1774.75098338 C612.64323185 1774.75094259 610.8383316 1774.75090055 609.03343134 1774.75085726 C551.97341005 1774.74949708 494.9134136 1774.76412481 437.85339928 1774.79193783 C423.48048567 1774.79893985 409.10757204 1774.80587877 394.73465824 1774.81246662 C393.84966458 1774.81287237 392.96467093 1774.81327812 392.05285928 1774.81369616 C364.77464347 1774.82612698 337.4964297 1774.83365747 310.21821117 1774.83618259 C309.36171482 1774.8362625 308.50521846 1774.8363424 307.62276767 1774.83642472 C288.8200099 1774.83813132 270.01725226 1774.83865365 251.21449443 1774.83808397 C244.48630352 1774.837891 237.75811262 1774.83778691 231.02992171 1774.83772651 C229.35610474 1774.83771068 227.68228777 1774.83769027 226.00847079 1774.83766526 C199.34033081 1774.83731265 172.67221207 1774.84870738 146.00407817 1774.86597289 C119.13928793 1774.88327726 92.27452711 1774.88765155 65.40973364 1774.87445025 C61.69561955 1774.8726257 57.9815054 1774.87093913 54.2673912 1774.86933422 C53.53933596 1774.86901405 52.81128072 1774.86869387 52.06116321 1774.86836399 C40.54283696 1774.86366183 29.02456167 1774.87236425 17.506245 1774.88667659 C6.17415786 1774.90047606 -5.15783475 1774.89961519 -16.48992729 1774.88429232 C-22.54940814 1774.87650911 -28.60870849 1774.87503589 -34.66817681 1774.89120702 C-40.18515292 1774.9058015 -45.7017988 1774.90184886 -51.2187604 1774.88335929 C-53.19789321 1774.87992805 -55.17705211 1774.88313613 -57.15615829 1774.89396171 C-78.32506014 1775.00196132 -97.66017917 1771.0283592 -113.91979408 1756.38031673 C-114.8028019 1755.59012142 -115.68580971 1754.79992611 -116.59557533 1753.98578548 C-141.21743562 1730.72613047 -150.85007655 1693.65229967 -152.01357923 1660.72628678 C-152.04937943 1657.85813087 -152.05603603 1654.99144339 -152.05089658 1652.12306732 C-152.05292006 1651.02561962 -152.05494353 1649.92817192 -152.05702832 1648.79746824 C-152.06259713 1645.11701405 -152.06108102 1641.43659737 -152.05960178 1637.75613976 C-152.06216212 1635.08063316 -152.06511615 1632.4051296 -152.06854549 1629.72962424 C-152.07522615 1623.89265604 -152.07819965 1618.05569503 -152.07874995 1612.21872317 C-152.07958525 1603.48044544 -152.08611095 1594.74217824 -152.09371292 1586.00390411 C-152.10648915 1571.11078142 -152.11444309 1556.21765958 -152.11974907 1541.32453251 C-152.12513095 1526.23034256 -152.13261999 1511.13615593 -152.14266205 1496.04196835 C-152.14329362 1495.08883218 -152.1439252 1494.13569601 -152.14457591 1493.15367693 C-152.147151 1489.27172929 -152.1497346 1485.38978166 -152.15233076 1481.50783404 C-152.18592326 1431.17096464 -152.20643393 1380.83409175 -152.22477074 1330.49721485 C-152.22874799 1319.6097839 -152.23293368 1308.72235303 -152.23712615 1297.83492216 C-152.26828289 1216.8211449 -152.29536312 1135.80736659 -152.31207292 1054.79358497 C-152.31595965 1036.01413485 -152.31997976 1017.23468475 -152.32405717 998.45523467 C-152.32456804 996.09788908 -152.32507677 993.74054349 -152.32558337 991.3831979 C-152.34185628 915.66198436 -152.3788552 839.94080274 -152.42973717 764.21960498 C-152.46628885 709.80943244 -152.49999459 655.39926659 -152.51228619 600.98908234 C-152.51254028 599.87022746 -152.51279437 598.75137259 -152.51305616 597.59861302 C-152.51857239 573.03751656 -152.52241307 548.47642011 -152.52468163 523.91532314 C-152.52561961 514.03311052 -152.52677574 504.15089793 -152.52799606 494.26868534 C-152.52812359 493.18714184 -152.52825111 492.10559833 -152.5283825 490.99128078 C-152.53259128 456.14858367 -152.55537208 421.30592928 -152.587751 386.46324788 C-152.62025951 351.3711208 -152.63386115 316.2790403 -152.62135679 281.18689882 C-152.61963218 276.33742345 -152.61811937 271.48794803 -152.61673355 266.63847256 C-152.61645394 265.68784657 -152.61617433 264.73722058 -152.61588625 263.75778775 C-152.61201113 248.70736945 -152.62830355 233.6570433 -152.65301346 218.60664763 C-152.67689567 203.80626563 -152.67937108 189.00600829 -152.65910913 174.20561951 C-152.64787444 165.52977773 -152.65301204 156.85432169 -152.68251667 148.17852066 C-152.70048311 142.41179437 -152.69655761 136.64534705 -152.67507017 130.87863358 C-152.66350654 127.61250461 -152.66436584 124.34727019 -152.68555755 121.0811681 C-152.77317814 106.64393425 -152.00392117 94.58370245 -145.91979408 81.38031673 C-145.60217327 80.6762039 -145.28455245 79.97209107 -144.95730676 79.24664148 C-134.28595975 55.64855598 -117.13665306 36.74905038 -94.91979408 23.38031673 C-94.32553627 23.01647884 -93.73127846 22.65264095 -93.11901283 22.27777767 C-65.30979031 5.52133372 -32.01559792 -0.12975748 0 0 Z " fill="#BD3C64" transform="translate(504.9197940826416,243.61968326568604)"/>
<path d="M0 0 C252.12 0 504.24 0 764 0 C764 112.53 764 225.06 764 341 C511.88 341 259.76 341 0 341 C0 228.47 0 115.94 0 0 Z " fill="#7F203C" transform="translate(654,552)"/>
<path d="M0 0 C0.66 0 1.32 0 2 0 C2 57.09 2 114.18 2 173 C-53.73669962 173.08104913 -53.73669962 173.08104913 -75.35614014 173.11108398 C-76.01982311 173.11200632 -76.68350609 173.11292866 -77.36730067 173.11387895 C-88.21052449 173.12894287 -99.0537485 173.14386769 -109.89697266 173.15869141 C-110.99175399 173.16018837 -110.99175399 173.16018837 -112.10865211 173.16171558 C-190.29876703 173.26856848 -268.48888297 173.3608048 -346.67904663 173.4234314 C-348.41546225 173.4248259 -350.15187786 173.42622042 -351.88829348 173.42761494 C-388.33449524 173.45684052 -424.7806983 173.48400782 -461.22690334 173.50879678 C-479.53448927 173.52125092 -497.8420749 173.53410066 -516.1496603 173.54732442 C-518.91132527 173.5493169 -521.67299025 173.55129808 -524.43465523 173.5532788 C-566.97057763 173.58388593 -609.50647143 173.62298775 -652.0423584 173.68664551 C-652.95722023 173.6880145 -653.87208206 173.68938348 -654.81466698 173.69079396 C-669.5653569 173.71291823 -684.31604572 173.7357541 -699.06673441 173.7586844 C-741.5428355 173.82470368 -784.01891463 173.88547853 -826.49506187 173.91139793 C-827.36817972 173.91193328 -828.24129756 173.91246864 -829.14087352 173.91302021 C-848.30593761 173.92467668 -867.47100197 173.93362576 -886.6360685 173.94000983 C-894.34694185 173.94262612 -902.05781505 173.94563231 -909.7686882 173.94877243 C-910.61262019 173.9491067 -911.45655218 173.94944097 -912.32605786 173.94978537 C-939.53713098 173.96075745 -966.74804093 174.00349385 -993.95904816 174.06282208 C-1021.36012304 174.12241976 -1048.76103946 174.1510063 -1076.16218082 174.13623988 C-1079.94531805 174.13420896 -1083.72845537 174.13253518 -1087.51159286 174.13107681 C-1088.25322133 174.13077801 -1088.99484979 174.1304792 -1089.75895184 174.13017134 C-1101.52111161 174.12635891 -1113.28293701 174.15626079 -1125.04500558 174.20009862 C-1136.59979636 174.24247542 -1148.15400029 174.24861922 -1159.70886062 174.21831814 C-1165.89492519 174.20314314 -1172.07986779 174.20417675 -1178.2658145 174.24883182 C-1183.88625307 174.28909854 -1189.50468732 174.2839026 -1195.12509265 174.24139976 C-1197.15271364 174.23421795 -1199.18047889 174.24404767 -1201.20791503 174.27235245 C-1216.33477526 174.47025807 -1216.33477526 174.47025807 -1220.48445968 170.80642407 C-1222.07312586 168.22215137 -1223.08548688 165.88238081 -1224 163 C-1224.556875 161.92234375 -1225.11375 160.8446875 -1225.6875 159.734375 C-1235.34154363 137.78291866 -1239.65212747 113.92122137 -1239 90 C-1238.97164062 88.82566406 -1238.94328125 87.65132812 -1238.9140625 86.44140625 C-1238.06135038 66.93054093 -1231.95230256 50.80944622 -1218 37 C-1217.34773438 36.31421875 -1216.69546875 35.6284375 -1216.0234375 34.921875 C-1196.41689708 15.69383923 -1162.28102355 8.7709774 -1135.79156172 8.88040417 C-1134.99995975 8.87962301 -1134.20835778 8.87884185 -1133.39276786 8.87803701 C-1130.74274607 8.87664383 -1128.09278908 8.88240175 -1125.44277382 8.88812542 C-1123.51445879 8.88859955 -1121.58614362 8.88863114 -1119.65782857 8.88826039 C-1114.34100857 8.88851543 -1109.02421166 8.89503966 -1103.70739763 8.90253925 C-1097.92983154 8.90957097 -1092.15226388 8.91074291 -1086.37469423 8.91262513 C-1075.57666799 8.91698601 -1064.77865086 8.92581701 -1053.98062932 8.93662819 C-1043.77496891 8.9467858 -1033.56930951 8.95452531 -1023.36364555 8.96006584 C-1022.33370346 8.96062569 -1022.33370346 8.96062569 -1021.28295446 8.96119684 C-1017.78181416 8.96308549 -1014.28067383 8.96492943 -1010.77953349 8.96675082 C-1003.6014918 8.97049462 -996.42345027 8.97451862 -989.24540877 8.97862875 C-988.52248938 8.97904203 -987.79956999 8.97945531 -987.05474394 8.97988111 C-975.80351002 8.98636 -964.5522773 8.99407401 -953.3010447 9.00253522 C-952.540917 9.00310646 -951.78078929 9.00367769 -950.99762741 9.00426623 C-947.91059268 9.00658935 -944.82355794 9.00891914 -941.73652321 9.01125365 C-904.00076026 9.03978509 -866.2649984 9.05866809 -828.52922766 9.0732222 C-819.69938099 9.076629 -810.86953437 9.0801553 -802.03968775 9.08368748 C-800.42227891 9.08433399 -798.80487006 9.08498048 -797.18746122 9.08562694 C-793.94268111 9.08692409 -790.697901 9.08822249 -787.45312089 9.08952148 C-784.19633679 9.09082483 -780.93955269 9.09212407 -777.68276858 9.0934199 C-740.11706134 9.10837262 -702.55135495 9.12496402 -664.98564909 9.14306133 C-662.43881909 9.14428741 -659.89198908 9.1455086 -657.34515908 9.1467293 C-618.11501081 9.1655673 -578.88486632 9.18740903 -539.65472412 9.21636963 C-538.81081093 9.2169921 -537.96689775 9.21761456 -537.09741144 9.21825589 C-523.4901251 9.22830177 -509.88283887 9.23850461 -496.27555268 9.24874132 C-457.08427937 9.27822398 -417.89300938 9.30528601 -378.70172691 9.31890583 C-377.49304953 9.31932772 -377.49304953 9.31932772 -376.25995443 9.31975813 C-359.36624608 9.32562337 -342.4725376 9.33064303 -325.57882869 9.33456795 C-317.6680144 9.33640841 -309.75720017 9.33843628 -301.84638596 9.34057045 C-301.06751981 9.3407772 -300.28865366 9.34098395 -299.4861855 9.34119696 C-274.38879206 9.34795252 -249.29143006 9.36787922 -224.19405084 9.39486517 C-198.92053269 9.42199773 -173.64704027 9.43692538 -148.37350668 9.43467717 C-144.88205665 9.43437099 -141.39060662 9.43420997 -137.89915657 9.43413734 C-137.2147315 9.43411815 -136.53030644 9.43409895 -135.82514122 9.43407918 C-125.64556316 9.43414413 -115.46603923 9.44543478 -105.28647804 9.46336365 C-93.96565569 9.48324076 -82.64492784 9.49013275 -71.32409149 9.47900309 C-65.62148398 9.47381702 -59.91907244 9.47505 -54.21648927 9.49385395 C-49.0304022 9.51083386 -43.8446593 9.50944983 -38.65857248 9.49331858 C-36.79249554 9.49075122 -34.9263943 9.49491773 -33.06035209 9.50658898 C-20.7600664 9.57878045 -11.11083896 8.51831615 -1 1 C-0.67 0.67 -0.34 0.34 0 0 Z " fill="#BFE4DD" transform="translate(1614,1800)"/>
<path d="M0 0 C0 358.38 0 716.76 0 1086 C-6.93 1086.33 -13.86 1086.66 -21 1087 C-25.56321918 1087.46103138 -30.03616186 1087.95472707 -34.5625 1088.625 C-35.72523438 1088.79539795 -36.88796875 1088.9657959 -38.0859375 1089.14135742 C-77.02821023 1095.19863763 -114.56978143 1108.62207989 -145.27734375 1133.78515625 C-148 1136 -148 1136 -151 1138 C-151.12087617 1050.86866386 -151.24057233 963.73730528 -151.33874512 841.5123291 C-151.33986072 840.0350479 -151.34097633 838.55776669 -151.34209196 837.08048549 C-151.3654742 806.07093542 -151.38720784 775.06138437 -151.40703743 744.05183183 C-151.41700047 728.47435712 -151.42728025 712.89688264 -151.43785953 697.31940834 C-151.43945352 694.96962726 -151.44103847 692.61984619 -151.44262304 690.27006511 C-151.46709854 654.09321499 -151.49836074 617.9163864 -151.54931641 581.73956299 C-151.55095919 580.57310077 -151.55095919 580.57310077 -151.55263516 579.38307365 C-151.5703338 566.84545044 -151.5886028 554.30782806 -151.60694752 541.77020577 C-151.65978702 505.65132194 -151.70839844 469.5324547 -151.72911835 433.41353607 C-151.72954663 432.67053757 -151.72997491 431.92753907 -151.73041617 431.16202546 C-151.739743 414.85010014 -151.7469015 398.53817461 -151.75200786 382.22624745 C-151.75410079 375.66254521 -151.75650576 369.09884308 -151.75901794 362.53514099 C-151.75928536 361.81677933 -151.75955278 361.09841768 -151.7598283 360.35828748 C-151.76859494 337.22530735 -151.80274666 314.09245042 -151.85025767 290.95951998 C-151.89934351 267.00151435 -151.9201076 243.04366782 -151.90801102 219.08560896 C-151.90192254 205.27373877 -151.91818216 191.46231482 -151.96638034 177.65052513 C-151.99638165 168.4235248 -151.99730801 159.19681665 -151.97465451 149.96979614 C-151.96257802 144.71261732 -151.96308458 139.4562823 -151.99906546 134.19919401 C-152.03159451 129.40998184 -152.02681495 124.62226667 -151.99311981 119.83307578 C-151.98743748 118.11751105 -151.99497641 116.40183414 -152.01788196 114.68641291 C-152.1636352 103.02509795 -149.95400059 94.77173148 -144.00580585 84.70605247 C-142.47692726 82.11276163 -141.06504681 79.45584382 -139.625 76.8125 C-121.66216852 46.98136916 -93.07036283 25.66286841 -61 13 C-59.86304688 12.55011719 -58.72609375 12.10023438 -57.5546875 11.63671875 C-39.27702891 4.78789772 -19.60404849 0 0 0 Z " fill="#7F203C" transform="translate(504,476)"/>
<path d="M0 0 C0.33 0 0.66 0 1 0 C1.90510169 23.91557162 1.90510169 23.91557162 -5.6875 33.75 C-9.27075771 37.5667532 -13.38831078 40.54262846 -18 43 C-18.5923651 43.33012455 -19.1847302 43.66024909 -19.79504576 44.00037742 C-28.41490263 48.14953905 -37.43050998 47.54403663 -46.75862885 47.48101807 C-48.68443526 47.48276423 -50.61024075 47.48627047 -52.5360412 47.49137259 C-57.83678661 47.50031922 -63.13720869 47.48428788 -68.43791298 47.46425933 C-74.20164734 47.44691193 -79.96536474 47.45286531 -85.72911787 47.45590591 C-95.83419795 47.4580389 -105.93917516 47.44534024 -116.04422951 47.42298889 C-126.88611734 47.39907535 -137.72796192 47.38373271 -148.56987572 47.3792572 C-149.25495347 47.37897005 -149.94003123 47.3786829 -150.64586892 47.37838704 C-154.13923534 47.37696748 -157.6326018 47.3756994 -161.12596831 47.37449157 C-185.63377083 47.36577362 -210.14152842 47.34001129 -234.64930491 47.30407418 C-260.48136582 47.26619842 -286.31340722 47.23790324 -312.14549255 47.22375488 C-312.92405046 47.22332626 -313.70260837 47.22289764 -314.50475895 47.22245603 C-323.20458651 47.21769157 -331.90441423 47.2132438 -340.60424203 47.20892572 C-356.69615082 47.20092737 -372.78805886 47.19159838 -388.87996674 47.1819458 C-389.68513718 47.18146468 -390.49030763 47.18098355 -391.31987718 47.18048785 C-429.64338288 47.15752204 -467.96687523 47.12243387 -506.29036873 47.084544 C-508.83316557 47.08203061 -511.37596243 47.07952331 -513.91875928 47.07701737 C-540.29789751 47.05100692 -566.67703499 47.02426989 -593.05617236 46.99739587 C-618.55160774 46.97142217 -644.0470433 46.94563838 -669.5424795 46.92047601 C-672.08088056 46.9179694 -674.61928162 46.91545673 -677.15768268 46.91294342 C-715.41556585 46.87510602 -753.67344775 46.84090869 -791.93134308 46.8180542 C-793.13853426 46.81733027 -793.13853426 46.81733027 -794.37011314 46.81659172 C-810.4525569 46.80696437 -826.53500089 46.79786694 -842.61744556 46.78989111 C-851.31611556 46.78557316 -860.01478544 46.78103026 -868.7134552 46.77624512 C-869.49164044 46.77581925 -870.26982567 46.77539338 -871.07159228 46.77495461 C-896.87671995 46.76068708 -922.68180269 46.73042066 -948.48690552 46.69251668 C-972.94064994 46.65667589 -997.39437716 46.63320658 -1021.84814708 46.62477918 C-1025.34133387 46.62356709 -1028.83452059 46.62220258 -1032.32770729 46.6207428 C-1033.01240979 46.62046101 -1033.69711229 46.62017923 -1034.40256336 46.61988891 C-1045.85920583 46.61476916 -1057.31576659 46.59370613 -1068.77238051 46.56826265 C-1078.76268224 46.54716963 -1088.75292542 46.54073576 -1098.74324782 46.54596941 C-1104.42782347 46.54852271 -1110.11219816 46.54488002 -1115.79673737 46.52318239 C-1174.50691701 46.28862215 -1174.50691701 46.28862215 -1226 72 C-1226.78761719 72.66386719 -1227.57523438 73.32773438 -1228.38671875 74.01171875 C-1238.43143378 83.2378492 -1243.71318891 94.96417296 -1247 108 C-1247.185625 108.63679688 -1247.37125 109.27359375 -1247.5625 109.9296875 C-1252.72230851 134.3466385 -1247.68923744 161.78426628 -1240.25 185.1875 C-1239.94497559 186.18245483 -1239.94497559 186.18245483 -1239.63378906 187.19750977 C-1236.99219726 195.08722818 -1233.04780898 201.41035816 -1229 209 C-826.4 209.33 -423.8 209.66 -9 210 C-9 217.26 -9 224.52 -9 232 C-6.793125 231.9175 -4.58625 231.835 -2.3125 231.75 C4.2395151 231.50506486 4.2395151 231.50506486 7.875 233.87109375 C11.22456137 237.2268124 11.87486151 239.83204075 12.375 244.5 C11.92847663 248.66755144 11.02071613 250.14256582 8 253 C3.66900951 255.2826334 -0.50065176 255.28104144 -5.28419286 255.25299966 C-6.12051953 255.25605276 -6.9568462 255.25910585 -7.8185161 255.26225147 C-10.63913311 255.27008525 -13.45953789 255.26360582 -16.28015614 255.25726891 C-18.32424567 255.25996059 -20.3683342 255.26352744 -22.41242084 255.26789337 C-28.06472729 255.27739161 -33.71696964 255.27433775 -39.36927933 255.26933783 C-45.50538856 255.26608293 -51.64148374 255.27434395 -57.77758855 255.28115618 C-68.54387884 255.29148537 -79.31014542 255.29436431 -90.0764389 255.29224396 C-101.63155543 255.2899969 -113.18665906 255.29205678 -124.74177361 255.29938889 C-125.47101851 255.29984819 -126.20026341 255.3003075 -126.95160664 255.30078072 C-129.92162353 255.30266396 -132.89164041 255.30457533 -135.86165726 255.3065231 C-166.86598551 255.32682637 -197.87030654 255.33293564 -228.87464068 255.33410732 C-232.21346623 255.33423682 -235.55229178 255.3343727 -238.89111733 255.33451414 C-239.71963983 255.33454815 -240.54816232 255.33458216 -241.40179156 255.3346172 C-259.75373237 255.33543377 -278.1056718 255.33981254 -296.45761189 255.34482583 C-304.01214038 255.34688254 -311.56666889 255.34886258 -319.1211974 255.35085833 C-320.37324156 255.3511901 -320.37324156 255.3511901 -321.65057954 255.35152857 C-369.49407714 255.36417976 -417.33757383 255.3724265 -465.18107319 255.37151146 C-466.97211664 255.3714799 -468.76316009 255.37144843 -470.55420354 255.37141704 C-478.64076722 255.37127027 -486.72733089 255.37109393 -494.81389457 255.37090927 C-498.41995432 255.37082703 -502.02601406 255.37074673 -505.63207381 255.37066665 C-507.43697407 255.37062586 -509.24187432 255.37058382 -511.04677458 255.37054053 C-568.10679586 255.36918034 -625.16679232 255.38380808 -682.22680664 255.41162109 C-696.59972025 255.41862312 -710.97263387 255.42556204 -725.34554768 255.43214989 C-726.67303816 255.43275851 -726.67303816 255.43275851 -728.02734664 255.43337943 C-755.30556245 255.44581025 -782.58377622 255.45334074 -809.86199474 255.45586586 C-810.7184911 255.45594576 -811.57498746 255.45602566 -812.45743825 255.45610799 C-831.26019602 255.45781459 -850.06295365 255.45833691 -868.86571149 255.45776723 C-875.59390239 255.45757426 -882.3220933 255.45747018 -889.05028421 255.45740977 C-890.72410118 255.45739395 -892.39791815 255.45737354 -894.07173512 255.45734853 C-920.73987511 255.45699592 -947.40799385 255.46839065 -974.07612775 255.48565616 C-1000.94091798 255.50296053 -1027.8056788 255.50733482 -1054.67047227 255.49413352 C-1058.38458637 255.49230897 -1062.09870052 255.4906224 -1065.81281471 255.48901749 C-1066.54086995 255.48869731 -1067.26892519 255.48837714 -1068.01904271 255.48804726 C-1079.53736896 255.48334509 -1091.05564425 255.49204751 -1102.57396092 255.50635986 C-1113.90604806 255.52015933 -1125.23804066 255.51929845 -1136.57013321 255.50397559 C-1142.62961406 255.49619238 -1148.68891441 255.49471915 -1154.74838272 255.51089029 C-1160.26535884 255.52548476 -1165.78200472 255.52153213 -1171.29896631 255.50304256 C-1173.27809913 255.49961132 -1175.25725803 255.50281939 -1177.23636421 255.51364497 C-1198.40526606 255.62164459 -1217.74038508 251.64804246 -1234 237 C-1234.88300781 236.20980469 -1235.76601562 235.41960937 -1236.67578125 234.60546875 C-1261.63029656 211.03156286 -1270.78544849 173.82516056 -1272.14038086 140.55273438 C-1272.89056619 111.563029 -1268.31908173 88.37776459 -1247.92602539 66.4765625 C-1223.09855092 40.80616738 -1184.72203673 30.92116616 -1149.99415172 29.94353287 C-1144.32371438 29.84942421 -1138.65284214 29.86530386 -1132.98181725 29.87250805 C-1131.0522507 29.87127263 -1129.1226844 29.8695982 -1127.19311857 29.86752674 C-1121.89147717 29.86309363 -1116.58985314 29.86484939 -1111.28821127 29.86760005 C-1105.520138 29.86947765 -1099.75206829 29.86552404 -1093.98399603 29.86228687 C-1083.87492226 29.85739598 -1073.76585316 29.8561403 -1063.65677834 29.85725212 C-1052.81252339 29.8584139 -1041.96827211 29.85741617 -1031.12401772 29.8536644 C-1030.43849477 29.85342769 -1029.75297182 29.85319098 -1029.04667545 29.85294709 C-1025.55101762 29.85172568 -1022.0553598 29.85045987 -1018.55970199 29.84917164 C-1011.39390139 29.84654032 -1004.22810069 29.8441864 -997.06229997 29.84191763 C-996.34069779 29.8416885 -995.61909561 29.84145936 -994.8756267 29.84122329 C-983.64991709 29.83770502 -972.42420758 29.83541023 -961.19849753 29.83385694 C-960.06132647 29.83369897 -960.06132647 29.83369897 -958.90118226 29.83353782 C-955.82244028 29.8331133 -952.7436983 29.83269535 -949.66495632 29.83228201 C-912.01458758 29.82722131 -874.36422843 29.8125579 -836.71386431 29.79359599 C-827.90142837 29.78915897 -819.08899237 29.78484039 -810.27655637 29.78052729 C-808.66240422 29.77973676 -807.04825207 29.7789462 -805.43409991 29.77815561 C-802.1959034 29.7765698 -798.95770689 29.77498519 -795.71951038 29.77340112 C-792.46937775 29.77181076 -789.21924513 29.77021628 -785.9691125 29.76861839 C-748.49012212 29.75019774 -711.01113113 29.73338772 -673.53213935 29.71807931 C-670.99155358 29.71704076 -668.45096781 29.71599731 -665.91038203 29.71495338 C-626.77173723 29.69890615 -587.63309354 29.68586056 -548.4944458 29.67993164 C-547.65233322 29.67980355 -546.81022064 29.67967545 -545.94258949 29.67954348 C-532.36394597 29.67748728 -518.78530243 29.6755884 -505.20665889 29.67372333 C-466.09716867 29.66835072 -426.9876839 29.6605649 -387.87819862 29.63936329 C-387.07411405 29.63892861 -386.27002947 29.63849394 -385.4415787 29.63804609 C-368.58369616 29.62890154 -351.72581424 29.61891295 -334.86793285 29.60783185 C-326.97404462 29.60264552 -319.08015627 29.59764603 -311.18626785 29.59275246 C-310.40907769 29.59226729 -309.63188752 29.59178213 -308.83114614 29.59128226 C-283.78967923 29.57574323 -258.74823201 29.5733412 -233.70676134 29.5779826 C-208.49210121 29.58261334 -183.2774776 29.57506603 -158.06282815 29.55037887 C-154.57961227 29.5469729 -151.09639626 29.54371176 -147.61318016 29.54053879 C-146.58896775 29.53959838 -146.58896775 29.53959838 -145.54406419 29.53863897 C-134.06984154 29.52849862 -122.59567764 29.53422921 -111.12145623 29.54416505 C-101.14641788 29.55171594 -91.17145747 29.54487122 -81.19643393 29.52618354 C-75.50751317 29.5159449 -69.81878227 29.51211057 -64.1298645 29.52580877 C-58.95622264 29.53814561 -53.78294057 29.53215869 -48.60932837 29.51145798 C-46.74777752 29.50723921 -44.88619643 29.50973883 -43.02466759 29.51972724 C-30.23994443 29.58339708 -20.21139488 28.45548037 -10.04296875 20.05078125 C-4.4002078 14.38644186 -1.43881579 7.76960529 0 0 Z " fill="#EB4F83" transform="translate(1625,1763)"/>
<path d="M0 0 C0.66 0.33 1.32 0.66 2 1 C1.67 22.12 1.34 43.24 1 65 C-30.09366569 65 -30.09366569 65 -42.5 63.1875 C-43.86822158 63.00122819 -45.23663514 62.8163618 -46.60522461 62.6328125 C-54.31540127 61.58564759 -62.00884419 60.42262759 -69.68457031 59.14746094 C-81.14651883 57.26836995 -92.69816661 55.93992656 -104.2199707 54.48535156 C-107.9916132 54.00107686 -111.75940487 53.4926871 -115.52734375 52.98046875 C-169.34166071 45.82916876 -224.12849887 48.85279659 -278.24951172 50.21313477 C-338.48990531 51.72413986 -398.7412717 52.35724019 -459 52 C-459.73100166 51.99574257 -460.46200333 51.99148514 -461.21515656 51.98709869 C-511.09950525 51.69110668 -560.95473218 50.50156078 -610.81933594 49.10424805 C-655.71595627 47.84818684 -700.59916528 46.81466309 -745.515625 46.86962891 C-750.21865296 46.87536718 -754.92162481 46.87188734 -759.62465096 46.86619663 C-796.40009857 46.82839562 -833.14169887 47.50244719 -869.875 49.3125 C-871.84367035 49.40762375 -871.84367035 49.40762375 -873.85211182 49.50466919 C-908.65395413 51.19364647 -943.38004124 53.79004089 -978.0625 57.125 C-978.90367371 57.20531464 -979.74484741 57.28562927 -980.61151123 57.36837769 C-988.75568167 58.1536542 -996.83909377 59.042254 -1004.90014648 60.47314453 C-1008.6318081 61.107383 -1012.37547734 61.63349175 -1016.125 62.1484375 C-1017.57666858 62.34865315 -1019.0283286 62.5489308 -1020.47998047 62.74926758 C-1021.21778748 62.8510733 -1021.95559448 62.95287903 -1022.71575928 63.05776978 C-1035.20753185 64.79259911 -1047.62192741 66.62667438 -1059.9453125 69.33544922 C-1063.06655465 70.01447904 -1066.19175211 70.67203652 -1069.31820679 71.32653809 C-1099.56087923 77.66300028 -1130.19054139 84.5959499 -1159 96 C-1159.74797852 96.29076416 -1160.49595703 96.58152832 -1161.26660156 96.88110352 C-1182.32682107 105.1283594 -1202.5464437 115.00833581 -1222.50390625 125.625 C-1226.63520953 127.82172655 -1230.80640391 129.92481843 -1235 132 C-1237.66979655 117.97937031 -1239.39028647 104.31641728 -1239 90 C-1238.97164062 88.82566406 -1238.94328125 87.65132812 -1238.9140625 86.44140625 C-1238.06135038 66.93054093 -1231.95230256 50.80944622 -1218 37 C-1217.34773438 36.31421875 -1216.69546875 35.6284375 -1216.0234375 34.921875 C-1196.41689708 15.69383923 -1162.28102355 8.7709774 -1135.79156172 8.88040417 C-1134.99995975 8.87962301 -1134.20835778 8.87884185 -1133.39276786 8.87803701 C-1130.74274607 8.87664383 -1128.09278908 8.88240175 -1125.44277382 8.88812542 C-1123.51445879 8.88859955 -1121.58614362 8.88863114 -1119.65782857 8.88826039 C-1114.34100857 8.88851543 -1109.02421166 8.89503966 -1103.70739763 8.90253925 C-1097.92983154 8.90957097 -1092.15226388 8.91074291 -1086.37469423 8.91262513 C-1075.57666799 8.91698601 -1064.77865086 8.92581701 -1053.98062932 8.93662819 C-1043.77496891 8.9467858 -1033.56930951 8.95452531 -1023.36364555 8.96006584 C-1022.33370346 8.96062569 -1022.33370346 8.96062569 -1021.28295446 8.96119684 C-1017.78181416 8.96308549 -1014.28067383 8.96492943 -1010.77953349 8.96675082 C-1003.6014918 8.97049462 -996.42345027 8.97451862 -989.24540877 8.97862875 C-988.52248938 8.97904203 -987.79956999 8.97945531 -987.05474394 8.97988111 C-975.80351002 8.98636 -964.5522773 8.99407401 -953.3010447 9.00253522 C-952.540917 9.00310646 -951.78078929 9.00367769 -950.99762741 9.00426623 C-947.91059268 9.00658935 -944.82355794 9.00891914 -941.73652321 9.01125365 C-904.00076026 9.03978509 -866.2649984 9.05866809 -828.52922766 9.0732222 C-819.69938099 9.076629 -810.86953437 9.0801553 -802.03968775 9.08368748 C-800.42227891 9.08433399 -798.80487006 9.08498048 -797.18746122 9.08562694 C-793.94268111 9.08692409 -790.697901 9.08822249 -787.45312089 9.08952148 C-784.19633679 9.09082483 -780.93955269 9.09212407 -777.68276858 9.0934199 C-740.11706134 9.10837262 -702.55135495 9.12496402 -664.98564909 9.14306133 C-662.43881909 9.14428741 -659.89198908 9.1455086 -657.34515908 9.1467293 C-618.11501081 9.1655673 -578.88486632 9.18740903 -539.65472412 9.21636963 C-538.81081093 9.2169921 -537.96689775 9.21761456 -537.09741144 9.21825589 C-523.4901251 9.22830177 -509.88283887 9.23850461 -496.27555268 9.24874132 C-457.08427937 9.27822398 -417.89300938 9.30528601 -378.70172691 9.31890583 C-377.49304953 9.31932772 -377.49304953 9.31932772 -376.25995443 9.31975813 C-359.36624608 9.32562337 -342.4725376 9.33064303 -325.57882869 9.33456795 C-317.6680144 9.33640841 -309.75720017 9.33843628 -301.84638596 9.34057045 C-301.06751981 9.3407772 -300.28865366 9.34098395 -299.4861855 9.34119696 C-274.38879206 9.34795252 -249.29143006 9.36787922 -224.19405084 9.39486517 C-198.92053269 9.42199773 -173.64704027 9.43692538 -148.37350668 9.43467717 C-144.88205665 9.43437099 -141.39060662 9.43420997 -137.89915657 9.43413734 C-137.2147315 9.43411815 -136.53030644 9.43409895 -135.82514122 9.43407918 C-125.64556316 9.43414413 -115.46603923 9.44543478 -105.28647804 9.46336365 C-93.96565569 9.48324076 -82.64492784 9.49013275 -71.32409149 9.47900309 C-65.62148398 9.47381702 -59.91907244 9.47505 -54.21648927 9.49385395 C-49.0304022 9.51083386 -43.8446593 9.50944983 -38.65857248 9.49331858 C-36.79249554 9.49075122 -34.9263943 9.49491773 -33.06035209 9.50658898 C-20.7600664 9.57878045 -11.11083896 8.51831615 -1 1 C-0.67 0.67 -0.34 0.34 0 0 Z " fill="#9BC6BF" transform="translate(1614,1800)"/>
<path d="M0 0 C401.94 0 803.88 0 1218 0 C1218 7.26 1218 14.52 1218 22 C1181.83431016 22.01647447 1145.66862005 22.03231054 1109.50292969 22.04760742 C1108.44137806 22.04805651 1108.44137806 22.04805651 1107.35838095 22.04851467 C1031.52938848 22.08057567 955.70039592 22.10824521 879.87139893 22.12702942 C878.1870832 22.12744777 876.50276748 22.12786613 874.81845176 22.12828448 C839.46442582 22.13705249 804.11039977 22.14520264 768.75637353 22.15263903 C750.99694459 22.15637523 733.23751568 22.16023015 715.4780868 22.16419732 C712.79913959 22.16479507 710.12019238 22.16538943 707.44124517 22.16598364 C666.18796029 22.17516387 624.93467807 22.18689083 583.68139648 22.20599365 C582.79437621 22.20640435 581.90735593 22.20681505 580.99345625 22.20723819 C566.69201202 22.21387532 552.3905679 22.22072614 538.08912379 22.22760532 C496.89785273 22.2474156 455.70658372 22.26564648 414.51530838 22.27341938 C413.66828536 22.27357999 412.82126233 22.27374059 411.94857195 22.27390606 C393.35459075 22.27740331 374.76060954 22.28008789 356.16662812 22.28200295 C348.68509307 22.28278782 341.20355804 22.28368968 333.72202301 22.28463173 C332.90320041 22.28473201 332.08437782 22.28483229 331.24074242 22.28493561 C304.85596044 22.28822517 278.47119364 22.30103914 252.08641778 22.31884663 C225.50904297 22.33674052 198.93168287 22.34529784 172.35430187 22.34087196 C168.68173501 22.34026272 165.00916814 22.33976057 161.33660126 22.33932304 C160.61667234 22.3392334 159.89674342 22.33914376 159.15499848 22.3390514 C147.75444144 22.33790936 136.35391554 22.34686364 124.95336698 22.36002959 C113.74344517 22.37276793 102.53356325 22.37456741 91.32363408 22.36549544 C85.32675463 22.36095507 79.32997929 22.36120585 73.3331109 22.37464955 C67.87758746 22.38678698 62.4222494 22.38511194 56.96672882 22.37241993 C55.00532434 22.37027721 53.04390625 22.37316527 51.08251919 22.38170573 C32.1125779 22.45906927 17.82657114 19.86516318 3.6875 6.125 C0 2.32495512 0 2.32495512 0 0 Z " fill="#BE3C64" transform="translate(397,1973)"/>
<path d="M0 0 C0 40.92 0 81.84 0 124 C-10.395 124.495 -10.395 124.495 -21 125 C-65.78021991 129.8556865 -109.97085871 142.85696386 -145.27734375 171.78515625 C-148 174 -148 174 -151 176 C-151.14006921 166.12385001 -151.24615635 156.24794282 -151.31087303 146.37099552 C-151.34196077 141.78285781 -151.3840107 137.19540798 -151.45263672 132.60766602 C-151.51864774 128.16608022 -151.55387476 123.72514877 -151.56926346 119.28310966 C-151.58020545 117.60286619 -151.60156455 115.92265158 -151.63438034 114.24269295 C-152.1293105 87.81312709 -138.98271233 63.39625206 -121.04614258 44.52685547 C-112.78207847 36.09830926 -104.10687708 29.08169444 -94 23 C-93.40574219 22.63616211 -92.81148438 22.27232422 -92.19921875 21.89746094 C-73.1577959 10.42405371 -51.41037906 4.65465677 -29.625 1.25 C-28.84825928 1.12197998 -28.07151855 0.99395996 -27.27124023 0.86206055 C-18.05292572 -0.45776473 -9.57513972 0 0 0 Z " fill="#7F203C" transform="translate(504,244)"/>
<path d="M0 0 C0 40.59 0 81.18 0 123 C-15.345 123.495 -15.345 123.495 -31 124 C-68.79333199 127.46727816 -106.09826907 135.98195201 -132 166 C-141.24572994 178.20805755 -146.43707982 191.25070474 -150 206 C-150.33 206 -150.66 206 -151 206 C-151.18615387 192.32549979 -151.32790829 178.65130579 -151.41449738 164.97579193 C-151.45607658 158.62419061 -151.51238835 152.2734623 -151.60351562 145.92236328 C-151.69105822 139.78199301 -151.73840366 133.64245725 -151.75901794 127.50151062 C-151.77368984 125.1700885 -151.80233863 122.83870706 -151.84584045 120.50764465 C-152.10819647 105.85347087 -150.92125164 95.45414325 -143 83 C-141.86692597 80.94192457 -140.74047248 78.88016835 -139.625 76.8125 C-128.29155431 58.00756228 -112.43238155 41.87558911 -94 30 C-93.12859375 29.39414063 -92.2571875 28.78828125 -91.359375 28.1640625 C-65.67855992 10.75467559 -30.86871776 0 0 0 Z " fill="#7F203C" transform="translate(504,1670)"/>
<path d="M0 0 C0 15.51 0 31.02 0 47 C-6.0328125 47.7734375 -6.0328125 47.7734375 -12.1875 48.5625 C-48.94030322 53.64176616 -85.87695479 64.608206 -116 87 C-116.5554248 87.40428223 -117.11084961 87.80856445 -117.68310547 88.22509766 C-128.97322413 96.46489209 -139.20888619 105.60236724 -148.35546875 116.19921875 C-148.89816406 116.79347656 -149.44085938 117.38773438 -150 118 C-150.33 118 -150.66 118 -151 118 C-151.17874622 111.36589238 -151.3005946 104.73241423 -151.38452148 98.09643555 C-151.4195381 95.84326982 -151.46716808 93.590261 -151.52807617 91.33764648 C-152.12587298 68.6464853 -152.12587298 68.6464853 -145.90942383 61.00073242 C-145.27931396 60.34049072 -144.6492041 59.68024902 -144 59 C-143.48655029 58.37262939 -142.97310059 57.74525879 -142.4440918 57.09887695 C-141.06443318 55.43170151 -139.62670647 53.8698065 -138.125 52.3125 C-137.3508374 51.49434814 -137.3508374 51.49434814 -136.56103516 50.65966797 C-114.53807551 27.64093499 -84.67660442 13.57428189 -53.8046875 6.859375 C-51.39229533 6.31448149 -48.99401329 5.69843685 -46.625 4.98828125 C-42.15557796 3.7697858 -37.70819428 3.07700568 -33.125 2.4375 C-32.21041016 2.30819092 -31.29582031 2.17888184 -30.35351562 2.0456543 C-20.26164849 0.6773694 -10.1845596 0 0 0 Z " fill="#7F203B" transform="translate(504,398)"/>
<path d="M0 0 C0 15.51 0 31.02 0 47 C-4.41375 47.5775 -8.8275 48.155 -13.375 48.75 C-53.2981476 54.22404879 -92.46188459 67.08074423 -124 93 C-124.51820313 93.41958984 -125.03640625 93.83917969 -125.5703125 94.27148438 C-133.53419651 100.73506322 -140.8614208 107.63756291 -148 115 C-148.99866121 116.001337 -149.9983829 117.00161972 -151 118 C-151.22999757 111.24204676 -151.38654242 104.48511725 -151.49438477 97.72412109 C-151.53938121 95.42914116 -151.6006021 93.13441537 -151.67895508 90.84033203 C-152.39470755 69.33033298 -152.39470755 69.33033298 -146.7421875 61.74609375 C-145.2077585 60.11911642 -143.62797043 58.53337531 -142 57 C-140.50914388 55.28090157 -139.02835565 53.55296506 -137.5625 51.8125 C-130.17373213 43.80800147 -122.17166182 36.8777005 -113 31 C-112.41395996 30.62230469 -111.82791992 30.24460937 -111.22412109 29.85546875 C-94.05692207 18.91707645 -75.55532278 12.34293595 -56 7 C-54.89914062 6.69320313 -53.79828125 6.38640625 -52.6640625 6.0703125 C-35.76296775 1.76740911 -17.41440549 0 0 0 Z " fill="#7F203B" transform="translate(504,1592)"/>
<path d="M0 0 C0 10.23 0 20.46 0 31 C-4.104375 31.515625 -8.20875 32.03125 -12.4375 32.5625 C-51.91584867 37.98391223 -88.18928906 53.23548806 -117 81 C-117.84046875 81.76570312 -118.6809375 82.53140625 -119.546875 83.3203125 C-132.88679907 95.85304371 -143.56109957 112.87385246 -150 130 C-150.33 130 -150.66 130 -151 130 C-151.25658574 122.51558819 -151.45116706 115.03163984 -151.56993389 107.5438118 C-151.62698775 104.065209 -151.70413483 100.58964587 -151.82983398 97.11279297 C-152.73147632 71.51798162 -152.73147632 71.51798162 -147.17756653 64.81817627 C-144.94946651 62.63035273 -142.5481955 60.79836103 -140 59 C-138.8665403 57.84042706 -137.75327366 56.65957479 -136.6875 55.4375 C-107.14808096 26.52956498 -67.68947074 11.35184694 -27.9375 3.25 C-26.90270508 3.03899658 -25.86791016 2.82799316 -24.80175781 2.6105957 C-16.48424006 0.9743517 -8.48345734 0 0 0 Z " fill="#E99024" transform="translate(504,445)"/>
<path d="M0 0 C0 10.23 0 20.46 0 31 C-3.444375 31.4125 -6.88875 31.825 -10.4375 32.25 C-41.21332155 36.20089155 -71.48024005 46.03482603 -97 64 C-98.04027344 64.72316406 -99.08054687 65.44632813 -100.15234375 66.19140625 C-122.5465474 82.55107789 -139.49351331 104.3587672 -150 130 C-150.33 130 -150.66 130 -151 130 C-151.20960543 122.4807156 -151.36897974 114.9617381 -151.46630955 107.44018745 C-151.51305473 103.94637154 -151.57631752 100.45457037 -151.67895508 96.96191406 C-151.79652555 92.93536405 -151.83930846 88.91088989 -151.87890625 84.8828125 C-151.92535782 83.64387238 -151.97180939 82.40493225 -152.01966858 81.12844849 C-152.02357109 74.35154601 -151.29501086 70.54686211 -146.70678711 65.40966797 C-145.15957036 63.91694118 -143.59102735 62.44594085 -142 61 C-140.59622725 59.52836595 -139.19920165 58.05023091 -137.8125 56.5625 C-127.72274726 46.63012642 -115.96674357 38.49463579 -104 31 C-103.40058594 30.62133789 -102.80117188 30.24267578 -102.18359375 29.85253906 C-72.9897578 11.67732694 -34.48996899 0 0 0 Z " fill="#E99024" transform="translate(504,1639)"/>
<path d="M0 0 C3.135 0.04125 6.27 0.0825 9.5 0.125 C9.5 10.025 9.5 19.925 9.5 30.125 C5.25309424 30.97438115 1.61091197 31.28660289 -2.6875 31.4375 C-19.53794149 32.25878202 -36.4429264 34.94529884 -52.5 40.125 C-53.84859055 40.50339844 -55.19897683 40.87543599 -56.55078125 41.2421875 C-66.64006518 44.00539947 -76.08421161 47.56836345 -85.5 52.125 C-86.13679688 52.43308594 -86.77359375 52.74117188 -87.4296875 53.05859375 C-108.15169759 63.25043953 -129.92687193 78.97874385 -140.5 100.125 C-140.83 100.125 -141.16 100.125 -141.5 100.125 C-141.72906543 93.43622023 -141.88615741 86.74845818 -141.99438477 80.05664062 C-142.03951825 77.7828187 -142.10084365 75.50925615 -142.17895508 73.23632812 C-142.28872601 69.95898424 -142.33929424 66.68510288 -142.37890625 63.40625 C-142.42535782 62.39759888 -142.47180939 61.38894775 -142.51966858 60.34973145 C-142.52278277 55.95000921 -142.39271824 53.21760032 -139.54786682 49.73577881 C-137.2815389 47.7032867 -134.97728624 45.89113079 -132.5 44.125 C-131.44297267 43.2773341 -130.3868416 42.42854806 -129.33203125 41.578125 C-114.0937402 30.45988936 -97.24003766 21.53100841 -79.5 15.125 C-78.82630371 14.87588867 -78.15260742 14.62677734 -77.45849609 14.37011719 C-66.49005953 10.38394486 -55.20459922 7.81433389 -43.8125 5.375 C-42.77923584 5.15166992 -42.77923584 5.15166992 -41.72509766 4.92382812 C-27.9105802 1.96145841 -14.17573304 -0.27150133 0 0 Z " fill="#EA9024" transform="translate(494.5,367.875)"/>
<path d="M0 0 C0 9.9 0 19.8 0 30 C-2.32933594 30.25394531 -4.65867187 30.50789063 -7.05859375 30.76953125 C-9.37913689 31.02643136 -11.69946161 31.28522691 -14.01977539 31.54418945 C-15.6009383 31.71966133 -17.18231251 31.89324208 -18.76391602 32.06469727 C-33.54019515 33.66887147 -48.28105148 35.54726909 -62.5625 39.8125 C-63.44252686 40.07111816 -64.32255371 40.32973633 -65.22924805 40.59619141 C-98.4231898 50.53420897 -127.55075802 67.41055488 -147.8125 96.03515625 C-148.534375 97.01355469 -149.25625 97.99195313 -150 99 C-150.33 99 -150.66 99 -151 99 C-151.25483476 92.47212731 -151.42918602 85.94554761 -151.54931641 79.41381836 C-151.59941925 77.19523194 -151.66752565 74.97697268 -151.75439453 72.75952148 C-152.45503345 54.40690309 -152.45503345 54.40690309 -148.984375 48.66577148 C-146.4432833 46.33925335 -144.0054386 44.66904345 -141 43 C-139.737448 42.0816265 -138.48124356 41.15440015 -137.234375 40.21484375 C-136.07960477 39.44559338 -134.91806454 38.68640964 -133.75 37.9375 C-133.11215576 37.52250244 -132.47431152 37.10750488 -131.81713867 36.67993164 C-92.80231435 11.54839213 -46.40575959 -1.32587885 0 0 Z " fill="#EA9024" transform="translate(504,1562)"/>
</svg>
